# xmcd
#
# Track frame offsets:
#	150
#	20537
#	32536
#	54097
#	71587
#	94309
#	116004
#	131453
#	140841
#	158901
#	164019
#	176087
#
# Disc length: 2587 seconds
#
# Revision: 1
# Processed by: cddbd v1.5.1PL0 Copyright (c) Steve Scherf et al.
# Submitted via: CDmax 2.0
#
DISCID=a60a190c
DTITLE=Otis Taylor - Double V
DYEAR=2004
DGENRE=Blues
TTITLE0=Please Come Home Before It Rains
TTITLE1=Took Their Land
TTITLE2=Plastic Spoon
TTITLE3=Mama's Selling Heroin
TTITLE4=505 Train
TTITLE5=Mandan Woman
TTITLE6=Sounds Of Attica
TTITLE7=It's Done Happened Again
TTITLE8=He Never Raced On Sunday
TTITLE9=Hurry Home
TTITLE10=Reindeer Meat
TTITLE11=Buy Myself Some Freedom
EXTD=YEAR: 2004
EXTT0=
EXTT1=
EXTT2=
EXTT3=
EXTT4=
EXTT5=
EXTT6=
EXTT7=
EXTT8=
EXTT9=
EXTT10=
EXTT11=
PLAYORDER=
